# xmcd
#
# Track frame offsets:
#       150
#       20552
#       38512
#       58147
#       74807
#       94047
#       111920
#       120002
#       135497
#       149592
#       172912
#       191012
#
# Disc length: 2678 seconds
#
# Revision: 2
# Processed by: cddbd v1.5.2PL0 Copyright (c) Steve Scherf et al.
# Submitted via: FreeDbEdit v0.1
#
DISCID=a70a740c
DTITLE=Janis Joplin - Highlights
DYEAR=1900
DGENRE=
TTITLE0=Me and Bobby McGee
TTITLE1=Cry Baby
TTITLE2=Kozmic Blues
TTITLE3=Move Over
TTITLE4=Piece of My Heart
TTITLE5=Try (Just a Little Bit Harder)
TTITLE6=Mercedes Benz
TTITLE7=Get It While You Can
TTITLE8=Down on Me
TTITLE9=Ball and Chain
TTITLE10=Summertime
TTITLE11=Mary Jane
EXTD=
EXTT0=
EXTT1=
EXTT2=
EXTT3=
EXTT4=
EXTT5=
EXTT6=
EXTT7=
EXTT8=
EXTT9=
EXTT10=
EXTT11=
PLAYORDER=
